<svg width="32" height="32" viewBox="0 0 32 32" fill="none" xmlns="http://www.w3.org/2000/svg">
<path d="M2.66667 4H29.3333C30.7333 4 32 5.26667 32 6.66667V25.3333C32 26.7333 30.7333 28 29.3333 28H2.66667C1.26667 28 0 26.7333 0 25.3333V6.66667C0 5.26667 1.26667 4 2.66667 4ZM18.6667 8V9.33333H29.3333V8H18.6667ZM18.6667 10.6667V12H28.6667H29.3333V10.6667H18.6667ZM18.6667 13.3333V14.6667H28V13.3333H18.6667ZM10.6667 18.5467C8 18.5467 2.66667 20 2.66667 22.6667V24H18.6667V22.6667C18.6667 20 13.3333 18.5467 10.6667 18.5467ZM10.6667 8C9.6058 8 8.58839 8.42143 7.83824 9.17157C7.08809 9.92172 6.66667 10.9391 6.66667 12C6.66667 13.0609 7.08809 14.0783 7.83824 14.8284C8.58839 15.5786 9.6058 16 10.6667 16C11.7275 16 12.7449 15.5786 13.4951 14.8284C14.2452 14.0783 14.6667 13.0609 14.6667 12C14.6667 10.9391 14.2452 9.92172 13.4951 9.17157C12.7449 8.42143 11.7275 8 10.6667 8Z" fill="white"/>
</svg>
